<svg aria-hidden="true" style="position: absolute; width: 0; height: 0; overflow: hidden;" version="1.1" xmlns="http://www.w3.org/2000/svg" xmlns:xlink="http://www.w3.org/1999/xlink">
<defs>
<symbol id="icon-d-cube-1" viewBox="0 0 32 32">
<path d="M31.352 27.45l-0.661-2.47c-0.071-0.259-0.305-0.447-0.582-0.447-0.333 0-0.603 0.27-0.603 0.603 0 0.055 0.008 0.109 0.022 0.16l-0.001-0.004 0.29 1.081-4.229-2.411v-10.024c-0-0.222-0.12-0.416-0.299-0.52l-0.003-0.002-8.735-5.022v-4.774l0.779 0.78c0.108 0.103 0.254 0.166 0.415 0.166 0.333 0 0.603-0.27 0.603-0.603 0-0.161-0.063-0.308-0.166-0.416l0 0-1.808-1.807c-0.109-0.108-0.26-0.175-0.426-0.175s-0.317 0.067-0.426 0.175l-1.808 1.808c-0.103 0.108-0.166 0.254-0.166 0.415 0 0.333 0.27 0.603 0.603 0.603 0.161 0 0.308-0.063 0.416-0.166l-0 0 0.779-0.779v4.774l-8.677 5.022c-0.181 0.106-0.301 0.3-0.301 0.521v9.926l-4.287 2.437 0.29-1.083c0.013-0.047 0.021-0.101 0.021-0.156 0-0.333-0.27-0.603-0.603-0.603-0.277 0-0.511 0.187-0.581 0.442l-0.001 0.004-0.662 2.47c-0.012 0.045-0.019 0.098-0.019 0.151 0 0.284 0.195 0.523 0.459 0.59l0.004 0.001 2.452 0.657c0.039 0.009 0.084 0.014 0.13 0.014 0.333 0 0.603-0.27 0.603-0.603 0-0.268-0.175-0.496-0.418-0.574l-0.004-0.001-1.045-0.28 4.255-2.418 8.718 5.134c0.187 0.11 0.419 0.111 0.607 0.003l2.21-1.274c0.193-0.103 0.322-0.303 0.322-0.533 0-0.333-0.27-0.603-0.603-0.603-0.119 0-0.23 0.034-0.323 0.094l0.002-0.001-1.905 1.098-7.818-4.604 7.74-4.398 7.888 4.5-1.207 0.696c-0.193 0.103-0.322 0.303-0.322 0.533 0 0.333 0.27 0.603 0.603 0.603 0.119 0 0.23-0.034 0.323-0.094l-0.002 0.001 1.818-1.048 4.18 2.385-1.047 0.28c-0.259 0.071-0.447 0.305-0.447 0.582 0 0.333 0.27 0.603 0.603 0.603 0.055 0 0.109-0.008 0.16-0.022l-0.004 0.001 2.415-0.647c0.286-0.053 0.5-0.3 0.5-0.598 0-0.055-0.007-0.108-0.021-0.159l0.001 0.004zM24.383 23.274l-7.832-4.468v-9.022l7.832 4.503v8.987zM7.573 14.286l7.773-4.499v8.976l-7.773 4.417v-8.894z"></path>
<path d="M20.527 27.472c0.007 0 0.016 0 0.025 0 0.333 0 0.603-0.27 0.603-0.603s-0.27-0.603-0.603-0.603c-0.009 0-0.017 0-0.026 0.001l0.001-0c-0.322 0.014-0.578 0.278-0.578 0.602s0.256 0.589 0.577 0.602l0.001 0z"></path>
</symbol>
<symbol id="icon-arrow-4" viewBox="0 0 32 32">
<path d="M1.923 18.246c0.131 0.021 0.264 0.030 0.396 0.030h22.575l-0.492 0.229c-0.482 0.227-0.919 0.536-1.294 0.914l-6.33 6.333c-0.452 0.432-0.733 1.040-0.733 1.714 0 0.492 0.15 0.948 0.406 1.327l-0.005-0.008c0.422 0.571 1.092 0.937 1.848 0.937 0.616 0 1.176-0.243 1.587-0.639l-0.001 0.001 11.447-11.447c0.415-0.415 0.672-0.988 0.672-1.621 0-0.631-0.256-1.203-0.669-1.618l-11.45-11.45c-0.414-0.413-0.986-0.668-1.617-0.668-0.738 0-1.395 0.349-1.814 0.892l-0.004 0.005c-0.251 0.37-0.401 0.827-0.401 1.319 0 0.674 0.281 1.281 0.732 1.713l0.001 0.001 6.319 6.344c0.335 0.335 0.722 0.619 1.144 0.835l0.686 0.309h-22.481c-0.027-0.001-0.058-0.002-0.090-0.002-1.151 0-2.11 0.82-2.325 1.908l-0.002 0.015c-0.203 1.25 0.645 2.424 1.893 2.627z"></path>
</symbol>
<symbol id="icon-desktop-1-1" viewBox="0 0 32 32">
<path d="M27.972 2.050h-23.848c-2.003 0.002-3.627 1.626-3.629 3.629v20.738c0.002 2.003 1.626 3.627 3.629 3.629h23.85c2.003-0.003 3.626-1.626 3.628-3.629v-20.738c-0.002-2.003-1.626-3.627-3.629-3.629h-0zM30.565 26.417c-0.002 1.431-1.162 2.591-2.593 2.592h-23.849c-1.431-0.002-2.59-1.161-2.592-2.592v-20.738c0.002-1.431 1.161-2.59 2.592-2.592h23.85c1.43 0.002 2.589 1.161 2.591 2.592v20.738z"></path>
<path d="M27.972 6.198h-23.848c-0.858 0-1.555 0.696-1.555 1.555v18.664c0 0.859 0.696 1.556 1.555 1.556h23.849c0.858 0 1.555-0.696 1.555-1.555v-18.664c0-0.859-0.696-1.556-1.556-1.556zM16.047 16.496l-5.645-3.040 5.646-3.040 5.647 3.040-5.647 3.040zM22.269 14.324v6.079l-5.704 3.072v-6.079l5.704-3.072zM15.529 17.396v6.080l-5.704-3.073v-6.080l5.704 3.073zM3.605 7.752c0 0 0 0 0 0 0-0.286 0.232-0.518 0.518-0.518 0 0 0.001 0 0.001 0h11.406v2.28l-6.467 3.484c-0.007 0.004-0.015 0.005-0.022 0.009-0.152 0.092-0.251 0.256-0.251 0.444 0 0.001 0 0.002 0 0.003v-0 4.345l-5.185 2.592v-12.64zM28.49 26.416c0 0.001 0 0.001 0 0.002 0 0.286-0.232 0.518-0.518 0.518 0 0 0 0 0 0h-23.85c0 0 0 0 0 0-0.286 0-0.518-0.232-0.518-0.518 0-0 0-0.001 0-0.001v0-4.864l5.184-2.593v1.753c0 0.191 0.104 0.367 0.273 0.456l6.739 3.629c0.154 0.083 0.339 0.083 0.492 0l6.739-3.629c0.164-0.089 0.273-0.26 0.273-0.456v0-1.753l5.186 2.593v4.864zM28.49 20.393l-5.184-2.592v-4.345c-0-0.188-0.101-0.353-0.251-0.444l-0.002-0.001c-0.007-0.005-0.014-0.006-0.021-0.009l-6.466-3.486v-2.281h11.405c0 0 0.001 0 0.001 0 0.286 0 0.518 0.232 0.518 0.518 0 0 0 0.001 0 0.001v-0 12.641zM3.605 5.16c0.286 0 0.519-0.232 0.519-0.519s-0.232-0.519-0.519-0.519v0c-0.286 0-0.519 0.232-0.519 0.519s0.232 0.519 0.519 0.519v0zM5.679 5.16c0.286 0 0.519-0.232 0.519-0.519s-0.232-0.519-0.519-0.519v0c-0.286 0-0.519 0.232-0.519 0.519s0.232 0.519 0.519 0.519v0zM7.752 5.16c0.286 0 0.519-0.232 0.519-0.519s-0.232-0.519-0.519-0.519v0c-0.286 0-0.519 0.232-0.519 0.519s0.232 0.519 0.519 0.519v0zM20.713 5.16h7.258c0.286 0 0.519-0.232 0.519-0.519s-0.232-0.519-0.519-0.519v0h-7.258c-0.286 0-0.519 0.232-0.519 0.519s0.232 0.519 0.519 0.519v0z"></path>
</symbol>
<symbol id="icon-fire" viewBox="0 0 32 32">
<path d="M27.932 18.735c-0.367-4.772-2.589-7.763-4.549-10.403-1.815-2.442-3.383-4.553-3.383-7.665-0.001-0.368-0.3-0.666-0.668-0.666-0.145 0-0.279 0.046-0.389 0.125l0.002-0.001c-2.944 2.107-5.4 5.658-6.259 9.044-0.595 2.359-0.673 5.011-0.685 6.762-2.719-0.581-3.334-4.648-3.341-4.692-0.050-0.325-0.327-0.571-0.662-0.571-0.105 0-0.204 0.024-0.293 0.067l0.004-0.002c-0.143 0.069-3.5 1.774-3.695 8.585-0.013 0.227-0.014 0.453-0.014 0.681 0 6.616 5.384 11.999 12 11.999 0.009 0 0.019 0.003 0.026 0h0.009c6.601-0.019 11.965-5.394 11.965-11.999 0-0.333-0.068-1.265-0.068-1.265zM16 30.665c-2.205 0-4-1.911-4-4.26 0-0.081 0-0.161 0.005-0.26 0.026-0.991 0.215-1.667 0.422-2.117 0.385 0.831 1.076 1.595 2.2 1.595 0 0 0 0 0 0 0.368 0 0.666-0.298 0.666-0.666 0-0 0-0.001 0-0.001v0c0-0.95 0.020-2.044 0.256-3.034 0.211-0.876 0.714-1.807 1.35-2.555 0.283 0.97 0.836 1.755 1.375 2.522 0.771 1.096 1.569 2.23 1.709 4.163 0.008 0.115 0.017 0.23 0.017 0.353 0 2.349-1.795 4.261-4 4.261z"></path>
</symbol>
<symbol id="icon-pc-1" viewBox="0 0 32 32">
<path d="M3.091 12.902c0.001 0 0.002 0 0.003 0 0.142 0 0.27-0.057 0.363-0.149l2.065-2.065c0.103-0.095 0.167-0.231 0.167-0.381 0-0.287-0.232-0.519-0.519-0.519-0.151 0-0.286 0.064-0.381 0.167l-0 0-2.065 2.065c-0.094 0.094-0.151 0.223-0.151 0.366 0 0.285 0.231 0.517 0.517 0.517 0 0 0.001 0 0.001 0h-0zM3.091 16c0.001 0 0.002 0 0.003 0 0.142 0 0.27-0.057 0.363-0.149l5.164-5.164c0.103-0.095 0.167-0.231 0.167-0.381 0-0.287-0.232-0.519-0.519-0.519-0.151 0-0.286 0.064-0.381 0.167l-0 0-5.164 5.163c-0.094 0.094-0.152 0.223-0.152 0.367 0 0.285 0.231 0.517 0.517 0.517 0.001 0 0.002 0 0.002 0h-0z"></path>
<path d="M29.941 0.509h-13.425c-0.855 0-1.549 0.694-1.549 1.55v5.679h-11.876c-0 0-0.001 0-0.001 0-1.426 0-2.581 1.156-2.581 2.581 0 0 0 0.001 0 0.001v-0 13.424c0 0 0 0.001 0 0.001 0 1.426 1.156 2.581 2.581 2.581 0 0 0.001 0 0.001 0h5.679v2.065h-1.549c-0.856 0-1.549 0.694-1.549 1.549s0.694 1.549 1.549 1.549v0h22.72c0.854 0 1.548-0.694 1.548-1.55v-27.883c0-0.855-0.693-1.55-1.549-1.55zM3.090 8.771h18.589c0.856 0 1.55 0.693 1.55 1.55v12.393h-21.687v-12.393c0-0.856 0.694-1.55 1.55-1.55zM1.542 23.745h21.687c0 0.856-0.693 1.55-1.55 1.55h-18.589c-0.855 0-1.549-0.693-1.549-1.549 0-0 0-0.001 0-0.001v0zM9.804 26.327h5.164v2.065h-5.164v-2.065zM16.516 30.458h-9.294c-0.285 0-0.516-0.231-0.516-0.516s0.231-0.516 0.516-0.516v0h10.327c0.285 0 0.516 0.231 0.516 0.516s-0.231 0.516-0.516 0.516v0h-1.034zM30.458 29.941c0 0 0 0.001 0 0.001 0 0.285-0.231 0.516-0.516 0.516-0 0-0.001 0-0.001 0h-10.935c0.056-0.154 0.088-0.331 0.088-0.516 0-0.854-0.691-1.547-1.545-1.55h-1.55v-2.065h5.68c0 0 0.001 0 0.001 0 1.426 0 2.581-1.156 2.581-2.581 0-0 0-0.001 0-0.001v0-13.425c0-0 0-0.001 0-0.001 0-1.426-1.156-2.581-2.581-2.581-0 0-0.001 0-0.001 0h-5.679v-5.679c0-0.285 0.231-0.517 0.516-0.517h13.425c0.285 0 0.517 0.232 0.517 0.517v27.883z"></path>
<path d="M28.393 3.091h-10.327c-0.57 0-1.033 0.463-1.033 1.033v1.033c0 0.57 0.463 1.033 1.033 1.033h10.327c0.57 0 1.033-0.463 1.033-1.033v-1.033c0-0.57-0.463-1.033-1.033-1.033zM18.065 5.157v-1.033h10.327v1.033h-10.327zM27.36 10.836c0.856 0 1.549-0.694 1.549-1.549s-0.694-1.549-1.549-1.549v0c-0.856 0-1.549 0.694-1.549 1.549s0.694 1.549 1.549 1.549v0zM27.36 8.771c0.285 0 0.516 0.231 0.516 0.516s-0.231 0.516-0.516 0.516v0c-0.285 0-0.516-0.231-0.516-0.516s0.231-0.516 0.516-0.516v0zM28.909 13.419c0-0.856-0.694-1.549-1.549-1.549s-1.549 0.694-1.549 1.549v0c0 0.856 0.694 1.549 1.549 1.549s1.549-0.694 1.549-1.549v0zM27.36 13.935c-0.285 0-0.516-0.231-0.516-0.516s0.231-0.516 0.516-0.516v0c0.285 0 0.516 0.231 0.516 0.516s-0.231 0.516-0.516 0.516v0zM20.648 27.36c-0 0-0.001 0-0.001 0-0.285 0-0.516 0.231-0.516 0.516 0 0 0 0 0 0v0 1.033c0 0.285 0.231 0.516 0.516 0.516s0.516-0.231 0.516-0.516v0-1.033c0-0.285-0.231-0.516-0.516-0.516v0zM22.712 27.36c-0.285 0-0.516 0.231-0.516 0.516v0 1.033c0 0.285 0.231 0.516 0.516 0.516s0.516-0.231 0.516-0.516v0-1.033c0 0 0 0 0 0 0-0.285-0.231-0.516-0.516-0.516-0 0-0.001 0-0.001 0h0zM24.778 27.36c-0.285 0-0.516 0.231-0.516 0.516v0 1.033c0 0.285 0.231 0.516 0.516 0.516s0.516-0.231 0.516-0.516v0-1.033c0 0 0 0 0 0 0-0.285-0.231-0.516-0.516-0.516-0 0-0.001 0-0.001 0h0zM26.843 27.36c-0.285 0-0.516 0.231-0.516 0.516v0 1.033c0 0.285 0.231 0.516 0.516 0.516s0.516-0.231 0.516-0.516v0-1.033c0 0 0 0 0 0 0-0.285-0.231-0.516-0.516-0.516-0 0-0.001 0-0.001 0h0zM28.909 27.36c-0 0-0.001 0-0.001 0-0.285 0-0.516 0.231-0.516 0.516 0 0 0 0 0 0v0 1.033c0 0.285 0.231 0.517 0.517 0.517s0.517-0.231 0.517-0.517v0-1.033c0 0 0 0 0 0 0-0.285-0.231-0.516-0.516-0.516-0 0-0.001 0-0.001 0h0z"></path>
</symbol>
<symbol id="icon-ps4-1" viewBox="0 0 32 32">
<path d="M6.725 11.393h-6.549v1.859h6.549c0.512 0 0.93 0.417 0.93 0.93s-0.418 0.93-0.93 0.93h-3.76c-1.539 0.002-2.787 1.249-2.789 2.789v2.789h1.859v-2.789c0-0.513 0.418-0.93 0.93-0.93h3.76c1.539-0.002 2.787-1.249 2.789-2.789v-0c-0.002-1.539-1.249-2.787-2.789-2.789h-0zM16.506 11.393c-1.539 0.002-2.787 1.249-2.789 2.789v3.719c0 0.512-0.417 0.93-0.93 0.93h-4.204v1.859h4.204c1.539-0.002 2.787-1.249 2.789-2.789v-3.719c0-0.512 0.417-0.93 0.93-0.93h4.203v-1.859h-4.203zM30.046 16.97v-3.718c-0.002-1.026-0.835-1.858-1.862-1.858-0.367 0-0.709 0.106-0.997 0.289l0.008-0.005-5.886 3.718c-0.524 0.333-0.867 0.91-0.867 1.568 0 0.002 0 0.004 0 0.006v-0c0.001 1.026 0.833 1.858 1.859 1.859h5.887v1.859h1.858v-1.859h1.859v-1.859h-1.859zM28.187 16.97h-5.887l5.887-3.718v3.718z"></path>
</symbol>
<symbol id="icon-smartphone-2-1" viewBox="0 0 32 32">
<path d="M22.445 0.647h-12.891c-1.243 0-2.254 1.012-2.254 2.254v26.197c0 1.243 1.012 2.254 2.254 2.254h12.891c1.243 0 2.254-1.012 2.254-2.254v-26.197c0-1.243-1.012-2.254-2.254-2.254zM8.324 4.741h15.352v19.448h-15.352v-19.449zM9.555 1.672h12.891c0.678 0 1.23 0.552 1.23 1.23v0.815h-15.352v-0.815c0-0.678 0.551-1.23 1.23-1.23zM22.445 30.328h-12.891c-0.679-0.001-1.229-0.551-1.23-1.23v-3.887h15.352v3.886c0 0.678-0.552 1.23-1.23 1.23z"></path>
<path d="M16 25.724c-1.129 0-2.047 0.918-2.047 2.046 0 1.129 0.919 2.048 2.047 2.048 1.129 0 2.047-0.919 2.047-2.047 0-1.129-0.919-2.047-2.047-2.047zM16 28.794c-0.541-0.031-0.969-0.477-0.969-1.023s0.427-0.993 0.966-1.023l0.003-0c0.541 0.031 0.969 0.477 0.969 1.023s-0.427 0.993-0.966 1.023l-0.003 0zM13.953 3.206h2.047c0.283 0 0.512-0.229 0.512-0.512s-0.229-0.512-0.512-0.512v0h-2.047c-0.283 0-0.512 0.229-0.512 0.512s0.229 0.512 0.512 0.512v0zM17.536 3.206h0.511c0.283 0 0.512-0.229 0.512-0.512s-0.229-0.512-0.512-0.512v0h-0.511c-0.283 0-0.512 0.229-0.512 0.512s0.229 0.512 0.512 0.512v0zM29.619 2.985c-0.093-0.092-0.22-0.15-0.361-0.15-0.282 0-0.511 0.229-0.511 0.511 0 0.141 0.057 0.269 0.15 0.362v0c0.886 0.888 1.434 2.114 1.434 3.468s-0.548 2.58-1.434 3.468l0-0c-0.095 0.093-0.153 0.222-0.153 0.365 0 0.282 0.229 0.511 0.511 0.511 0.143 0 0.272-0.059 0.365-0.153l0-0c1.071-1.073 1.733-2.555 1.733-4.191s-0.662-3.118-1.733-4.191l0 0z"></path>
<path d="M27.464 4.15c-0.093-0.093-0.221-0.15-0.362-0.15-0.283 0-0.512 0.229-0.512 0.512 0 0.142 0.057 0.27 0.15 0.362v0c0.633 0.633 0.981 1.476 0.981 2.374 0 0.003 0 0.007 0 0.011 0 0.923-0.375 1.758-0.981 2.362l-0 0c-0.095 0.093-0.153 0.222-0.153 0.365 0 0.282 0.229 0.511 0.511 0.511 0.143 0 0.272-0.059 0.365-0.153l0-0c0.827-0.826 1.282-1.925 1.282-3.097 0-1.171-0.454-2.271-1.281-3.097zM3.105 3.709c0.092-0.092 0.15-0.22 0.15-0.361 0-0.282-0.229-0.511-0.511-0.511-0.141 0-0.269 0.057-0.362 0.15v0c-1.071 1.073-1.733 2.555-1.733 4.191s0.662 3.118 1.733 4.191l-0-0c0.092 0.093 0.22 0.15 0.361 0.15s0.269-0.057 0.361-0.15l0-0c0.093-0.093 0.15-0.22 0.15-0.362s-0.057-0.269-0.15-0.362v0c-0.887-0.888-1.435-2.114-1.435-3.468s0.548-2.58 1.435-3.468l-0 0z"></path>
<path d="M5.259 4.009c-0.092-0.092-0.22-0.15-0.361-0.15s-0.269 0.057-0.361 0.15v0c-0.827 0.826-1.282 1.926-1.282 3.097s0.454 2.271 1.281 3.098c0.092 0.093 0.22 0.151 0.362 0.151s0.269-0.058 0.362-0.151l0-0c0.093-0.093 0.15-0.22 0.15-0.362s-0.057-0.269-0.15-0.362v0c-0.606-0.604-0.981-1.439-0.981-2.362 0-0.004 0-0.009 0-0.013v0.001c0-0.898 0.348-1.74 0.981-2.374 0.092-0.093 0.149-0.22 0.149-0.361s-0.057-0.269-0.149-0.361l0 0z"></path>
</symbol>
<symbol id="icon-vr-glasses" viewBox="0 0 32 32">
<path d="M18.567 23.905c-0.781 0.267-1.682 0.422-2.618 0.422s-1.837-0.154-2.677-0.439l0.059 0.017c-0.091-0.033-0.195-0.053-0.304-0.053-0.499 0-0.904 0.405-0.904 0.904 0 0.404 0.265 0.746 0.631 0.862l0.006 0.002c1.030 0.343 2.11 0.514 3.19 0.514 1.082 0 2.162-0.171 3.19-0.514 0.362-0.124 0.618-0.461 0.618-0.858 0-0.499-0.405-0.904-0.904-0.904-0.102 0-0.201 0.017-0.293 0.049l0.006-0.002z"></path>
<path d="M26.477 6.531c-0.408-2.805-2.796-4.936-5.683-4.936-0.002 0-0.004 0-0.006 0h-1.032v-0.064c0-0.5-0.405-0.904-0.904-0.904h-5.808c-0.499 0-0.904 0.405-0.904 0.904v0.064h-1.031c-2.91 0-5.282 2.147-5.685 4.936-1.708 0.4-2.961 1.91-2.963 3.712v7.744c0 2.476 2.018 3.486 2.934 3.704 0.414 5.575 5.095 9.784 10.554 9.784 5.567 0 10.144-4.32 10.554-9.784 2.375-0.564 2.934-2.72 2.934-3.704v-7.744c-0.002-1.802-1.253-3.31-2.934-3.707l-0.026-0.005zM19.757 3.403h1.032c2.557 0 3.613 2.090 3.833 3.032h-4.865v-3.032zM13.949 2.435h4v4h-4v-4zM11.109 3.403h1.032v3.032h-4.861c0.586-2.455 2.81-3.032 3.83-3.032zM15.949 29.667c-4.46 0-8.273-3.379-8.73-7.872h4.456c1.169-0.003 2.226-0.48 2.991-1.248l0-0c0.34-0.332 0.807-0.522 1.283-0.522 0.506 0.001 0.964 0.206 1.297 0.537l-0-0c0.763 0.759 1.815 1.23 2.976 1.233h4.457c-0.454 4.416-4.196 7.872-8.73 7.872zM27.629 17.987c0 1.118-0.911 2-2 2h-5.406c-0.663-0.002-1.263-0.27-1.699-0.704l0 0c-0.66-0.657-1.57-1.063-2.574-1.066h-0.001c-1.013 0.003-1.928 0.416-2.59 1.082l-0 0c-0.434 0.424-1.028 0.686-1.684 0.688h-5.405c-1.085 0-2-0.878-2-2v-7.744c0-1.103 0.897-2 2-2h19.36c1.103 0 2 0.897 2 2v7.744z"></path>
</symbol>
<symbol id="icon-linkedin" viewBox="0 0 32 32">
<path d="M31.992 32v-0.001h0.008v-11.736c0-5.741-1.236-10.164-7.948-10.164-3.227 0-5.392 1.771-6.276 3.449h-0.093v-2.913h-6.364v21.364h6.627v-10.579c0-2.785 0.528-5.479 3.977-5.479 3.399 0 3.449 3.179 3.449 5.657v10.401h6.62z"></path>
<path d="M0.528 10.636h6.635v21.364h-6.635v-21.364z"></path>
<path d="M3.843 0c-2.121 0-3.843 1.721-3.843 3.843s1.721 3.879 3.843 3.879c2.121 0 3.843-1.757 3.843-3.879-0.001-2.121-1.723-3.843-3.843-3.843v0z"></path>
</symbol>
<symbol id="icon-facebook" viewBox="0 0 32 32">
<path d="M21.329 5.313h2.921v-5.088c-0.504-0.069-2.237-0.225-4.256-0.225-4.212 0-7.097 2.649-7.097 7.519v4.481h-4.648v5.688h4.648v14.312h5.699v-14.311h4.46l0.708-5.688h-5.169v-3.919c0.001-1.644 0.444-2.769 2.735-2.769z"></path>
</symbol>
<symbol id="icon-twitter" viewBox="0 0 32 32">
<path d="M32 6.078c-1.19 0.522-2.458 0.868-3.78 1.036 1.36-0.812 2.398-2.088 2.886-3.626-1.268 0.756-2.668 1.29-4.16 1.588-1.204-1.282-2.92-2.076-4.792-2.076-3.632 0-6.556 2.948-6.556 6.562 0 0.52 0.044 1.020 0.152 1.496-5.454-0.266-10.28-2.88-13.522-6.862-0.566 0.982-0.898 2.106-0.898 3.316 0 2.272 1.17 4.286 2.914 5.452-1.054-0.020-2.088-0.326-2.964-0.808 0 0.020 0 0.046 0 0.072 0 3.188 2.274 5.836 5.256 6.446-0.534 0.146-1.116 0.216-1.72 0.216-0.42 0-0.844-0.024-1.242-0.112 0.85 2.598 3.262 4.508 6.13 4.57-2.232 1.746-5.066 2.798-8.134 2.798-0.538 0-1.054-0.024-1.57-0.090 2.906 1.874 6.35 2.944 10.064 2.944 12.072 0 18.672-10 18.672-18.668 0-0.29-0.010-0.57-0.024-0.848 1.302-0.924 2.396-2.078 3.288-3.406z"></path>
</symbol>
<symbol id="icon-instagram" viewBox="0 0 32 32">
<path d="M31.969 9.408c-0.075-1.7-0.35-2.869-0.744-3.882-0.406-1.075-1.032-2.038-1.851-2.838-0.8-0.813-1.769-1.444-2.832-1.844-1.019-0.394-2.182-0.669-3.882-0.744-1.713-0.081-2.257-0.1-6.601-0.1s-4.888 0.019-6.595 0.094c-1.7 0.075-2.869 0.35-3.882 0.744-1.075 0.406-2.038 1.031-2.838 1.85-0.813 0.8-1.444 1.769-1.844 2.832-0.394 1.019-0.669 2.182-0.744 3.882-0.081 1.713-0.1 2.257-0.1 6.601s0.019 4.888 0.094 6.595c0.075 1.7 0.35 2.869 0.744 3.882 0.406 1.075 1.038 2.038 1.85 2.838 0.8 0.813 1.769 1.444 2.832 1.844 1.019 0.394 2.182 0.669 3.882 0.744 1.706 0.075 2.25 0.094 6.595 0.094s4.888-0.019 6.595-0.094c1.7-0.075 2.869-0.35 3.882-0.744 2.151-0.832 3.851-2.532 4.682-4.682 0.394-1.019 0.669-2.182 0.744-3.882 0.075-1.707 0.094-2.251 0.094-6.595s-0.006-4.888-0.081-6.595zM29.087 22.473c-0.069 1.563-0.331 2.407-0.55 2.969-0.538 1.394-1.644 2.5-3.038 3.038-0.563 0.219-1.413 0.481-2.969 0.55-1.688 0.075-2.194 0.094-6.464 0.094s-4.782-0.019-6.464-0.094c-1.563-0.069-2.407-0.331-2.969-0.55-0.694-0.256-1.325-0.663-1.838-1.194-0.531-0.519-0.938-1.144-1.194-1.838-0.219-0.563-0.481-1.413-0.55-2.969-0.075-1.688-0.094-2.194-0.094-6.464s0.019-4.782 0.094-6.464c0.069-1.563 0.331-2.407 0.55-2.969 0.256-0.694 0.663-1.325 1.2-1.838 0.519-0.531 1.144-0.938 1.838-1.194 0.563-0.219 1.413-0.481 2.969-0.55 1.688-0.075 2.194-0.094 6.464-0.094 4.276 0 4.782 0.019 6.464 0.094 1.563 0.069 2.407 0.331 2.969 0.55 0.694 0.256 1.325 0.662 1.838 1.194 0.531 0.519 0.938 1.144 1.194 1.838 0.219 0.563 0.481 1.413 0.55 2.969 0.075 1.688 0.094 2.194 0.094 6.464s-0.019 4.77-0.094 6.458z"></path>
<path d="M16.059 7.783c-4.538 0-8.22 3.682-8.22 8.22s3.682 8.22 8.22 8.22c4.539 0 8.22-3.682 8.22-8.22s-3.682-8.22-8.22-8.22zM16.059 21.335c-2.944 0-5.332-2.388-5.332-5.332s2.388-5.332 5.332-5.332c2.944 0 5.332 2.388 5.332 5.332s-2.388 5.332-5.332 5.332z"></path>
<path d="M26.524 7.458c0 1.060-0.859 1.919-1.919 1.919s-1.919-0.859-1.919-1.919c0-1.060 0.859-1.919 1.919-1.919s1.919 0.859 1.919 1.919z"></path>
</symbol>
</defs>
</svg>
